<svg xmlns="http://www.w3.org/2000/svg" xmlns:xlink="http://www.w3.org/1999/xlink" xmlns:inkscape="http://www.inkscape.org/namespaces/inkscape" version="1.1" width="340.95" height="83.83" viewBox="0 0 340.95 83.83">
<defs>
<path id="font_0_1" d="M.397995 .69581606C.3929901 .7088165 .3909912 .7158203 .375 .7158203 .35899354 .7158203 .35598756 .70980837 .35099793 .69581606L.14399719 .09791565C.12599182 .04698181 .085998538 .03199768 .03199768 .0309906V0C.054992677 .0009918213 .09799194 .0029907227 .13398743 .0029907227 .16499329 .0029907227 .21699524 .0009918213 .24899292 0V.0309906C.19898987 .0309906 .17399597 .05596924 .17399597 .0819397 .17399597 .08493042 .1749878 .09492493 .17599488 .09692383L.22200012 .2277832H.46899415L.5219879 .07495117C.522995 .07095337 .5249939 .064956668 .5249939 .060958864 .5249939 .0309906 .46899415 .0309906 .44198609 .0309906V0C.47799684 .0029907227 .5479889 .0029907227 .58599856 .0029907227 .6289978 .0029907227 .6749878 .0019989014 .71699526 0V.0309906H.69898989C.6389923 .0309906 .625 .037979127 .6139984 .07095337L.397995 .69581606M.34498597 .58380129 .45799256 .25878907H.23298645L.34498597 .58380129Z"/>
<path id="font_0_4" d="M.17298889 .3996582H.31599427V.43066407H.17298889V.6147156H.147995C.14698792 .5326996 .116989139 .42565919 .018997193 .42166139V.3996582H.10398865V.12416077C.10398865 .0012512207 .19699097-.0107421879 .23298645-.0107421879 .3039856-.0107421879 .33198548 .06021118 .33198548 .12416077V.18112183H.30699159V.12615967C.30699159 .052215578 .2769928 .014251709 .23999024 .014251709 .17298889 .014251709 .17298889 .10517883 .17298889 .122161868V.3996582Z"/>
<path id="font_0_5" d="M.33299256 .076156619C.33699037 .036132814 .3639984-.005859375 .41099549-.005859375 .43199159-.005859375 .49299623 .008132935 .49299623 .089157108V.14518738H.46798707V.089157108C.46798707 .031143189 .44299317 .025131226 .43199159 .025131226 .39898683 .025131226 .394989 .07015991 .394989 .075149539V.27514649C.394989 .31707765 .394989 .3560791 .35899354 .39312745 .31999208 .43223573 .269989 .4482422 .22200012 .4482422 .13999939 .4482422 .070999149 .40115357 .070999149 .335083 .070999149 .30508424 .09098816 .28808595 .116989139 .28808595 .14498902 .28808595 .16299439 .30807496 .16299439 .33407594 .16299439 .3460846 .1579895 .3790741 .11199951 .38008119 .13899231 .41519166 .18798828 .426239 .21998596 .426239 .2689972 .426239 .32598878 .38710023 .32598878 .29808045V.26123048C.2749939 .2582245 .20498657 .25523377 .14199829 .22523499 .066986087 .1912384 .041992189 .13923645 .041992189 .09524536 .041992189 .014251709 .13899231-.0107421879 .20199585-.0107421879 .2679901-.010864258 .31399537 .029129029 .33299256 .076156619M.32598878 .24023438V.1401825C.32598878 .045135499 .2539978 .011138916 .20899964 .011138916 .1599884 .011138916 .11898804 .046142579 .11898804 .09616089 .11898804 .15118408 .16099549 .23422241 .32598878 .24023438Z"/>
<path id="font_0_7" d="M.116989139 .21801758C.116989139 .38093568 .19898987 .42323304 .2519989 .42323304 .26098634 .42323304 .32398988 .42222596 .35899354 .38594056 .31799317 .38293458 .31199647 .3529358 .31199647 .3399353 .31199647 .31393434 .32998658 .2939453 .35798646 .2939453 .38398744 .2939453 .4039917 .3109436 .4039917 .34094239 .4039917 .40911866 .32798768 .4482422 .25099183 .4482422 .12599182 .4482422 .033996583 .3399353 .033996583 .21601868 .033996583 .08816528 .1329956-.0107421879 .24899292-.0107421879 .3829956-.0107421879 .4149933 .10914612 .4149933 .119140628 .4149933 .12911988 .40499879 .12911988 .4019928 .12911988 .3929901 .12911988 .3909912 .12512207 .3889923 .119140628 .3600006 .026229859 .29499818 .014251709 .2579956 .014251709 .20498657 .014251709 .116989139 .0572052 .116989139 .21801758Z"/>
<path id="font_0_13" d="M.10598755 .07595825C.10598755 .0309906 .09498596 .0309906 .027999878 .0309906V0C.06098938 .0009918213 .10798645 .0029907227 .13699341 .0029907227 .16699219 .0029907227 .20698548 .0019989014 .24699402 0V.0309906C.17999268 .0309906 .16899109 .0309906 .16899109 .07595825V.17886353L.23298645 .23381043C.30999757 .12789917 .35198976 .07196045 .35198976 .053970338 .35198976 .034988405 .33499146 .0309906 .31599427 .0309906V0C.34399415 .0009918213 .40299989 .0029907227 .42399598 .0029907227 .45298768 .0029907227 .48199464 .0019989014 .5109863 0V.0309906C.47399903 .0309906 .45199586 .0309906 .4139862 .0839386L.2869873 .26278688C.28599549 .26478578 .2809906 .2707672 .2809906 .2737732 .2809906 .277771 .35198976 .33770753 .3619995 .34570313 .4249878 .39666749 .46699525 .39865113 .48799134 .3996582V.43066407C.45899964 .42765809 .44599916 .42765809 .41799928 .42765809 .38198854 .42765809 .31999208 .42965699 .30599977 .43066407V.3996582C.32499696 .39865113 .33499146 .3876648 .33499146 .37467958 .33499146 .3547058 .32099916 .3427124 .31298829 .33570863L.17199707 .21382141V.69433596L.027999878 .68333438V.6523285C.09799194 .6523285 .10598755 .64530947 .10598755 .5961609V.07595825Z"/>
<path id="font_0_12" d="M.1769867 .4423828 .036987306 .43138124V.40037538C.101989749 .40037538 .11099243 .3943634 .11099243 .34532167V.076034549C.11099243 .0309906 .099990848 .0309906 .032989503 .0309906V0C.06498718 .0009918213 .11898804 .0029907227 .14299011 .0029907227 .17799378 .0029907227 .21299744 .0009918213 .24699402 0V.0309906C.18099976 .0309906 .1769867 .035995485 .1769867 .075042728V.4423828M.18099976 .6159363C.18099976 .64793398 .1559906 .6689453 .12799073 .6689453 .09700012 .6689453 .07499695 .64193728 .07499695 .6159363 .07499695 .5889435 .09700012 .5629425 .12799073 .5629425 .1559906 .5629425 .18099976 .5839386 .18099976 .6159363Z"/>
<path id="font_0_2" d="M.10998535 .34429933V.076034549C.10998535 .0309906 .09899902 .0309906 .03199768 .0309906V0C.066986087 .0009918213 .117996219 .0029907227 .14498902 .0029907227 .17098999 .0029907227 .22299195 .0009918213 .25698854 0V.0309906C.18998719 .0309906 .1789856 .0309906 .1789856 .076034549V.2602234C.1789856 .36431886 .25 .42037965 .31399537 .42037965 .3769989 .42037965 .3880005 .36631776 .3880005 .30926515V.076034549C.3880005 .0309906 .3769989 .0309906 .30999757 .0309906V0C.34498597 .0009918213 .3959961 .0029907227 .4229889 .0029907227 .44898988 .0029907227 .5009918 .0009918213 .5349884 0V.0309906C.48298646 .0309906 .45799256 .0309906 .45700074 .061019899V.25221253C.45700074 .3383026 .45700074 .36932374 .42599488 .405365 .4119873 .42237855 .3789978 .4423828 .32099916 .4423828 .24798584 .4423828 .20098877 .39935304 .17298889 .33729554V.4423828L.03199768 .43138124V.40037538C.101989749 .4003601 .10998535 .39335633 .10998535 .34429933Z"/>
<path id="font_0_11" d="M.22200012 .17240906C.1349945 .17240906 .1349945 .2723999 .1349945 .2953949 .1349945 .3223877 .13598633 .35438539 .15098572 .37937928 .15899658 .39137269 .18199158 .41937257 .22200012 .41937257 .30899049 .41937257 .30899049 .3193817 .30899049 .29638673 .30899049 .26939393 .30799867 .23739624 .29299928 .21240235 .2849884 .20040894 .2619934 .17240906 .22200012 .17240906M.10598755 .13330078C.10598755 .1373291 .10598755 .16040039 .12298584 .18040467 .1619873 .15240479 .20298767 .14941406 .22200012 .14941406 .31498719 .14941406 .38398744 .21839905 .38398744 .2953949 .38398744 .3323822 .36799623 .36938478 .34298707 .39237977 .3789978 .42637635 .4149933 .43138124 .43299867 .43138124 .43499757 .43138124 .43998719 .43138124 .44299317 .43037416 .43199159 .42637635 .4269867 .41537477 .4269867 .40338136 .4269867 .38638307 .43998719 .3743744 .45599366 .3743744 .46598817 .3743744 .4850006 .38137818 .4850006 .40437318 .4850006 .42137147 .47299195 .45336915 .43399049 .45336915 .4139862 .45336915 .36999513 .44737245 .32798768 .40637208 .28599549 .43937684 .24398804 .4423828 .22200012 .4423828 .1289978 .4423828 .05999756 .37338258 .05999756 .29638673 .05999756 .25239564 .08198547 .21440125 .10699463 .19340515 .09399414 .17840576 .07598877 .14538574 .07598877 .11013794 .07598877 .07891846 .08898926 .04083252 .11999512 .020828248 .05999756 .003829956 .027999878-.039138795 .027999878-.07911682 .027999878-.15107727 .1269989-.20605469 .24899292-.20605469 .36698915-.20605469 .47099305-.15507508 .47099305-.07711792 .47099305-.042144777 .45700074 .008834839 .4059906 .036834718 .35299684 .064834598 .29499818 .064834598 .23399353 .064834598 .20899964 .064834598 .1659851 .064834598 .15899658 .065841678 .1269989 .069869998 .10598755 .10107422 .10598755 .13330078M.25-.18305969C.14898682-.18305969 .07998657-.13209534 .07998657-.07911682 .07998657-.03314209 .117996219 .003829956 .1619873 .0068359377H.22099304C.30699159 .0068359377 .4189911 .0068359377 .4189911-.07911682 .4189911-.13308716 .34799195-.18305969 .25-.18305969Z"/>
<path id="font_1_2" d="M.22999573-.060333253H.22898865C.19699097 .0037231446 .10499573 .059768678 .027999878 .07678223V.04475403C.027999878 .03375244 .08099365 .020736695 .10499573 .006729126 .1599884-.02330017 .22999573-.09335327 .22999573-.1414032 .24099732-.145401 .24598694-.17341614 .24899292-.19042969H.25099183C.2539978-.17341614 .25898744-.145401 .269989-.1414032 .269989-.03930664 .47200013 .041763307 .47200013 .04475403V.07678223C.394989 .059768678 .30299378 .0037231446 .2709961-.060333253 .269989-.05632019 .269989-.052322389 .269989-.048324586V.6462555C.269989 .65226748 .2709961 .65927127 .2709961 .666275 .2709961 .6792908 .2669983 .6953125 .25099183 .6953125 .23799134 .6953125 .22999573 .68429568 .22999573 .672287V-.060333253Z"/>
<path id="font_2_1" d="M.40098573-.22601319C.4059906-.2400055 .41099549-.25 .42399598-.25 .43499757-.25 .44400025-.24101258 .44400025-.23001099 .44400025-.22801209 .44400025-.22601319 .43899537-.21400452L.09700012 .7259979C.09098816 .7429962 .08799744 .75 .07499695 .75 .06399536 .75 .054992677 .7409973 .054992677 .7299957 .054992677 .7279968 .054992677 .7259979 .05999756 .71398928L.40098573-.22601319Z"/>
<path id="font_0_3" d="M.034988405 .6826172V.6516113H.05899048C.13598633 .6516113 .13798523 .64060977 .13798523 .6046295V.07795715C.13798523 .041992189 .13598633 .0309906 .05899048 .0309906H.034988405V0H.40098573C.56900027 0 .70700076 .1479187 .70700076 .33580018 .70700076 .52568057 .57199099 .6826172 .40098573 .6826172H.034988405M.272995 .0309906C.22599793 .0309906 .22399903 .037994386 .22399903 .07096863V.6116333C.22399903 .64460757 .22599793 .6516113 .272995 .6516113H.37298585C.43499757 .6516113 .5039978 .6296234 .5549927 .55867007 .59799197 .49969483 .6069946 .41375733 .6069946 .33580018 .6069946 .22486878 .58799746 .16490174 .5519867 .11593628 .5319977 .08895874 .47499085 .0309906 .37399293 .0309906H.272995Z"/>
<path id="font_0_9" d="M.11199951 .2524414C.117996219 .40126039 .20199585 .426239 .23599243 .426239 .33898927 .426239 .34899903 .2913971 .34899903 .2524414H.11199951M.11099243 .23144531H.3899994C.4119873 .23144531 .4149933 .23144531 .4149933 .2524414 .4149933 .35131837 .36099244 .4482422 .23599243 .4482422 .11999512 .4482422 .027999878 .34532167 .027999878 .22042847 .027999878 .08631897 .1329956-.0107421879 .24798584-.0107421879 .36999513-.0107421879 .4149933 .10032654 .4149933 .11933899 .4149933 .12934876 .40699769 .13134766 .4019928 .13134766 .3929901 .13134766 .3909912 .12535095 .3889923 .11734009 .35398866 .014251709 .2639923 .014251709 .2539978 .014251709 .20399475 .014251709 .1639862 .044281007 .14099121 .08131409 .11099243 .12934876 .11099243 .19540406 .11099243 .23144531Z"/>
<path id="font_0_10" d="M.1749878 .43066407V.5467529C.1749878 .63479617 .22299195 .68307498 .2669983 .68307498 .269989 .68307498 .2849884 .68307498 .2999878 .675827 .28799439 .6717987 .269989 .6587982 .269989 .6338043 .269989 .61079409 .28599549 .5907898 .31298829 .5907898 .34199525 .5907898 .35699464 .61079409 .35699464 .63479617 .35699464 .6717987 .31999208 .7050781 .2669983 .7050781 .19699097 .7050781 .11199951 .65179446 .11199951 .5457611V.43066407H.032989503V.3996582H.11199951V.07595825C.11199951 .0309906 .100997928 .0309906 .033996583 .0309906V0C.07299805 .0009918213 .11999512 .0029907227 .147995 .0029907227 .18798828 .0029907227 .23498535 .0029907227 .2749939 0V.0309906H.2539978C.17999268 .0309906 .17799378 .04197693 .17799378 .07795715V.3996582H.2919922V.43066407H.1749878Z"/>
<path id="font_0_8" d="M.37998963 .055252077V-.0107421879L.5269928 .00024414063V.03125C.45700074 .03125 .44898988 .038253786 .44898988 .087265018V.69433596L.30499269 .68333438V.6523285C.375 .6523285 .3829956 .6453247 .3829956 .596344V.38035584C.35398866 .41636659 .31098939 .4423828 .25698854 .4423828 .13899231 .4423828 .033996583 .3443451 .033996583 .21531677 .033996583 .088272098 .13198853-.0107421879 .24598694-.0107421879 .30999757-.0107421879 .35499574 .023254395 .37998963 .055252077M.37998963 .323349V.118270877C.37998963 .1002655 .37998963 .0982666 .36898805 .08126831 .33898927 .0332489 .2939911 .011245728 .25099183 .011245728 .20599365 .011245728 .16999817 .037246705 .1459961 .07527161 .11999512 .11627197 .116989139 .17329407 .116989139 .21430969 .116989139 .25131227 .11898804 .31134034 .147995 .35635377 .16899109 .38735963 .20698548 .42037965 .26098634 .42037965 .29599 .42037965 .33799745 .405365 .36898805 .36035157 .37998963 .34335328 .37998963 .34135438 .37998963 .323349Z"/>
<path id="font_1_1" d="M.70199587 .50097659C.71398928 .42080689 .7599945 .33563233 .81900027 .28652955 .82499697 .28051759 .8299866 .2755127 .83699038 .27149964L.08198547 .2705078C.069992069 .2705078 .054992677 .26849366 .054992677 .25050355 .054992677 .23249817 .069992069 .23049927 .08198547 .23049927L.83699038 .22950745C.81999209 .21951294 .8009949 .19856262 .7849884 .17959595 .7429962 .1296997 .71199038 .065841678 .70199587 .0009765625H.74198916C.7619934 .101760867 .81999209 .18159485 .9119873 .23550415 .9219971 .24049378 .93299868 .24450684 .94299319 .25050355 .93299868 .25650025 .9219971 .26049806 .9119873 .26550294 .81999209 .31959535 .7619934 .399765 .74198916 .50097659H.70199587Z"/>
<path id="font_3_9" d="M.54599 .13192749 .30599977 .6605377C.29499818 .6855469 .28399659 .6855469 .2619934 .6855469H.039993287V.63853457H.147995V.07597351C.147995 .053985597 .14698792 .052993776 .11898804 .049987794 .09498596 .04699707 .09298706 .04699707 .06498718 .04699707H.039993287V0C.07798767 .0029907227 .1349945 .0029907227 .17399597 .0029907227 .21598816 .0029907227 .2679901 .0029907227 .30899049 0V.04699707H.28399659C.2659912 .04699707 .24899292 .04798889 .23098755 .049987794 .20199585 .052993776 .20098877 .053985597 .20098877 .07597351V.6255493H.20199585L.47399903 .024993897C.48298646 .004989624 .49499513 0 .5059967 0 .526001 0 .5339966 .01499939 .5379944 .023986817L.81700137 .63853457H.81799319V.04699707H.70999148V0C.74598696 .0029907227 .83898928 .0029907227 .8799896 .0029907227 .92099 .0029907227 1.0149994 .0029907227 1.0509949 0V.04699707H.94299319V.63853457H1.0509949V.6855469H.8299866C.80799868 .6855469 .7969971 .6855469 .7859955 .6605377L.54599 .13192749Z"/>
<path id="font_3_11" d="M.46199037 .2179718C.48399354 .2179718 .49398805 .2179718 .49398805 .2449646 .49398805 .27598573 .48799134 .34906007 .43798829 .3991089 .40098573 .43511964 .34799195 .453125 .2789917 .453125 .11898804 .453125 .03199768 .35005189 .03199768 .22497559 .03199768 .09107971 .13198853-.005859375 .29299928-.005859375 .45098878-.005859375 .49398805 .10006714 .49398805 .11706543 .49398805 .13504029 .47499085 .13504029 .46998597 .13504029 .45298768 .13504029 .45098878 .13005066 .44499208 .11405945 .42399598 .066101077 .36698915 .03413391 .3019867 .03413391 .16099549 .03413391 .1599884 .16700745 .1599884 .2179718H.46199037M.1599884 .25097657C.1619873 .29000855 .16299439 .3320465 .18399048 .36506654 .20999146 .4051056 .25 .41711427 .2789917 .41711427 .3959961 .41711427 .397995 .28599549 .39898683 .25097657H.1599884Z"/>
<path id="font_3_18" d="M.22399903 .69433596 .04699707 .6863251V.639328C.10899353 .639328 .115997318 .639328 .115997318 .6003113V.04699707H.04699707V0C.07899475 .0009918213 .1269989 .0029907227 .16999817 .0029907227 .21299744 .0029907227 .25898744 .0009918213 .29299928 0V.04699707H.22399903V.69433596Z"/>
<path id="font_3_13" d="M.2829895 .3611908V.63853457H.40098573C.56199648 .63853457 .56399539 .5607147 .56399539 .49986268 .56399539 .44400025 .56399539 .3611908 .39898683 .3611908H.2829895M.5499878 .3401947C.66600039 .37016297 .71699526 .43501283 .71699526 .5008545 .71699526 .60162356 .6069946 .6855469 .4189911 .6855469H.038986207V.63853457H.14698792V.04699707H.038986207V0C.07499695 .0029907227 .17298889 .0029907227 .21499634 .0029907227 .25698854 .0029907227 .35499574 .0029907227 .3909912 0V.04699707H.2829895V.3251953H.3999939C.4139862 .3251953 .45799256 .3251953 .4889984 .29119874 .5209961 .25619508 .5209961 .23721314 .5209961 .16421509 .5209961 .098236087 .5209961 .049240114 .59098818 .01524353 .6349945-.0067443849 .69699099-.0107421879 .73799136-.0107421879 .8450012-.0107421879 .8580017 .07923889 .8580017 .0952301 .8580017 .11723328 .84399417 .11723328 .83399966 .11723328 .8129883 .11723328 .81199648 .10723877 .8109894 .09423828 .80599978 .04724121 .7769928 .025253296 .746994 .025253296 .68699648 .025253296 .6779938 .09623718 .6729889 .13822937 .67099 .14923096 .6629944 .21821594 .6619873 .22320557 .647995 .29319764 .59298709 .32418824 .5499878 .3401947Z"/>
<path id="font_3_7" d="M.37399293 .077056888C.37399293 .04598999 .37399293 0 .47799684 0H.526001C.54599 0 .55799868 0 .55799868 .023986817 .55799868 .04699707 .54499819 .04699707 .5319977 .04699707 .47099305 .04798889 .47099305 .061019899 .47099305 .08406067V.2993164C.47099305 .38816834 .3999939 .453125 .25099183 .453125 .19400025 .453125 .07199097 .44911195 .07199097 .36120606 .07199097 .317276 .10699463 .29830934 .13398743 .29830934 .16499329 .29830934 .19699097 .3192749 .19699097 .36120606 .19699097 .39115907 .17799378 .40812684 .1749878 .41012574 .20298767 .41612245 .23498535 .41711427 .24699402 .41711427 .32199098 .41711427 .35699464 .3751831 .35699464 .2993164V.2653656C.28599549 .26237489 .03199768 .2533722 .03199768 .10821533 .03199768 .012130737 .1559906-.005859375 .22499085-.005859375 .30499269-.006011963 .35198976 .034988405 .37399293 .077056888M.35699464 .234375V.13917542C.35699464 .042999269 .2649994 .02999878 .23999024 .02999878 .18899536 .02999878 .14898682 .06503296 .14898682 .1091156 .14898682 .21733094 .30699159 .23135376 .35699464 .234375Z"/>
<path id="font_3_1" d="M.11399841 .3561554V.04699707H.04499817V0C.07299805 .0009918213 .1329956 .0029907227 .17098999 .0029907227 .20999146 .0029907227 .2689972 .0009918213 .29699708 0V.04699707H.22799683V.25610353C.22799683 .36515809 .31399537 .41418458 .3769989 .41418458 .41099549 .41418458 .43199159 .39317323 .43199159 .31713868V.04699707H.36299134V0C.3909912 .0009918213 .45098878 .0029907227 .4889984 .0029907227 .5279999 .0029907227 .58699038 .0009918213 .61499026 0V.04699707H.54599V.30613709C.54599 .41119386 .49198915 .4501953 .3919983 .4501953 .29599 .4501953 .24299622 .39317323 .21699524 .34214784V.4501953L.04499817 .44218446V.39518739C.10699463 .39518739 .11399841 .39518739 .11399841 .3561554Z"/>
<path id="font_3_12" d="M.25498963 .19029236C.16699219 .19029236 .16699219 .2572174 .16699219 .3021698 .16699219 .3471222 .16699219 .4140625 .25498963 .4140625 .34298707 .4140625 .34298707 .3471222 .34298707 .3021698 .34298707 .2572174 .34298707 .19029236 .25498963 .19029236M.1329956 .1802826C.1789856 .15629578 .22999573 .15429688 .25498963 .15429688 .39898683 .15429688 .45399476 .23223877 .45399476 .3021698 .45399476 .3491211 .42900086 .38209535 .4139862 .3980713 .44400025 .4140625 .46499635 .4160614 .47599793 .41705323 .47399903 .4120636 .47200013 .4030609 .47200013 .39707948 .47200013 .37210084 .4889984 .35412599 .5149994 .35412599 .54100039 .35412599 .55799868 .37309266 .55799868 .39707948 .55799868 .4200592 .54100039 .4550476 .49499513 .4550476 .47999574 .4550476 .43299867 .45205689 .3889923 .41705323 .37098695 .4290619 .32899476 .45005799 .25498963 .45005799 .11099243 .45005799 .055999757 .37210084 .055999757 .3021698 .055999757 .2612152 .07598877 .22026062 .10798645 .19728089 .07998657 .16229248 .07398987 .12918091 .07398987 .10810852 .07398987 .093048099 .07798767 .044006349 .117996219 .011993408 .10499573 .009002686 .03199768-.011993408 .03199768-.07507324 .03199768-.12612915 .08699036-.20117188 .2869873-.20117188 .46398927-.20117188 .5419922-.14215088 .5419922-.07206726 .5419922-.042037965 .5339966 .020996094 .46699525 .054992677 .41099549 .08300781 .35099793 .08300781 .25498963 .08300781 .22898865 .08300781 .18299866 .08300781 .17799378 .083999637 .13398743 .091033939 .12298584 .12918091 .12298584 .14726258 .12298584 .1572876 .1269989 .17228699 .1329956 .1802826M.19499207-.013000488H.31199647C.34298707-.013000488 .45599366-.013000488 .45599366-.07507324 .45599366-.1111145 .4169922-.16517639 .2869873-.16517639 .16699219-.16517639 .117996219-.119125369 .117996219-.07307434 .117996219-.013000488 .18099976-.013000488 .19499207-.013000488Z"/>
<path id="font_3_10" d="M.41799928 .042999269V-.006011963L.6009979 0V.04699707C.5389862 .04699707 .5319977 .04699707 .5319977 .086013797V.69433596L.35499574 .6863251V.639328C.4169922 .639328 .42399598 .639328 .42399598 .600296V.40518189C.37399293 .44418336 .32199098 .4501953 .2889862 .4501953 .14299011 .4501953 .037994386 .36218263 .037994386 .22116089 .037994386 .089141849 .12998963-.005859375 .27799989-.005859375 .33898927-.006011963 .3869934 .017990113 .41799928 .042999269M.41799928 .35316468V.103027347C.40499879 .085006717 .3639984 .02999878 .28799439 .02999878 .1659851 .02999878 .1659851 .15104676 .1659851 .2210846 .1659851 .26911927 .1659851 .32313539 .19198609 .36216737 .22099304 .40419007 .2679901 .41418458 .29899598 .41418458 .35598756 .41418458 .3959961 .38217164 .41799928 .35316468Z"/>
<path id="font_3_14" d="M.22399903 .4501953 .049987794 .44218446V.39518739C.10899353 .39518739 .115997318 .39518739 .115997318 .35617066V.04699707H.04699707V0C.07798767 .0009918213 .1269989 .0029907227 .16899109 .0029907227 .19898987 .0029907227 .25 .0009918213 .28599549 0V.04699707H.22399903V.4501953M.23399353 .6173096C.23399353 .66130068 .19799805 .6953125 .1559906 .6953125 .11299133 .6953125 .07798767 .66030886 .07798767 .6173096 .07798767 .5743103 .11299133 .53930667 .1559906 .53930667 .19799805 .53930667 .23399353 .5733032 .23399353 .6173096Z"/>
<path id="font_3_8" d="M.3600006 .40711976C.34199525 .39111329 .33999635 .3701172 .33999635 .3611145 .33999635 .3171234 .375 .29812623 .4019928 .29812623 .43299867 .29812623 .46499635 .3191223 .46499635 .3611145 .46499635 .44711305 .34899903 .453125 .29100038 .453125 .11199951 .453125 .037994386 .3381195 .037994386 .22212219 .037994386 .08912659 .13198853-.005859375 .28599549-.005859375 .44799806-.005859375 .47799684 .11012268 .47799684 .117126468 .47799684 .13113404 .46398927 .13113404 .45399476 .13113404 .43598939 .13113404 .43499757 .12913513 .42999269 .11613464 .4039917 .053131105 .35598756 .03413391 .30499269 .03413391 .1659851 .03413391 .1659851 .18112183 .1659851 .22712708 .1659851 .28312684 .1659851 .41311646 .29499818 .41311646 .32998658 .41311646 .34700013 .41011048 .3600006 .40711976Z"/>
<path id="font_3_15" d="M.4019928 .41426087 .25698854 .44525147C.21699524 .45425416 .16099549 .48825074 .16099549 .5492554 .16099549 .59225466 .18899536 .6542511 .2889862 .6542511 .36898805 .6542511 .46998597 .6202545 .49299623 .48425294 .49699403 .46025086 .49699403 .45825196 .5179901 .45825196 .5419922 .45825196 .5419922 .46325685 .5419922 .48625184V.6692505C.5419922 .68826296 .5419922 .6972656 .5239868 .6972656 .5159912 .6972656 .5149994 .69625857 .5039978 .68626406L.45899964 .6422577C.40098573 .68826296 .33599855 .6972656 .28799439 .6972656 .13598633 .6972656 .06399536 .6012573 .06399536 .4962616 .06399536 .43125917 .09700012 .3852539 .117996219 .36325074 .16699219 .31425477 .20098877 .30725099 .30999757 .2832489 .397995 .2642517 .4149933 .261261 .43699647 .24024964 .45199586 .22525025 .47698976 .19924927 .47698976 .15325928 .47698976 .10525513 .45098878 .036254884 .34700013 .036254884 .2709961 .036254884 .11898804 .056243898 .11099243 .20524597 .10998535 .22325135 .10998535 .22825623 .08799744 .22825623 .06399536 .22825623 .06399536 .22225952 .06399536 .19924927V.01725769C.06399536-.0017547608 .06399536-.0107421879 .08198547-.0107421879 .09098816-.0107421879 .09298706-.008743286 .100997928-.0017547608L.14698792 .04425049C.21299744-.0047454836 .30599977-.0107421879 .34700013-.0107421879 .5119934-.0107421879 .57398989 .102249149 .57398989 .20324707 .57398989 .31425477 .49299623 .39526368 .4019928 .41426087Z"/>
<path id="font_3_6" d="M.43798829 .072143558V-.005859375L.61499026 .0001373291V.0471344C.5529938 .0471344 .54599 .0471344 .54599 .086135867V.4501953L.36299134 .44218446V.39518739C.4249878 .39518739 .43199159 .39518739 .43199159 .3561859V.16514588C.43199159 .08314514 .3809967 .030136109 .30799867 .030136109 .23098755 .030136109 .22799683 .055130006 .22799683 .10914612V.4501953L.04499817 .44218446V.39518739C.10699463 .39518739 .11399841 .39518739 .11399841 .3561859V.12315369C.11399841 .01612854 .19499207-.005859375 .2939911-.005859375 .31999208-.005859375 .3919983-.005859375 .43798829 .072143558Z"/>
<path id="font_3_3" d="M.21998596 .32917787C.21998596 .34817506 .22099304 .34918214 .23498535 .36317445 .2749939 .40419007 .32699586 .41018678 .34899903 .41018678 .41600038 .41018678 .47200013 .34918214 .47200013 .22315979 .47200013 .08213806 .4019928 .030136109 .33699037 .030136109 .32299806 .030136109 .27598573 .030136109 .23098755 .08413696 .21998596 .09713745 .21998596 .09814453 .21998596 .11714172V.32917787M.21998596 .039138795C.2630005 .004135132 .30699159-.005859375 .34799195-.005859375 .49798585-.005859375 .59999087 .08413696 .59999087 .22315979 .59999087 .35617066 .5089874 .4501953 .36499024 .4501953 .2899933 .4501953 .23699951 .41918946 .21398926 .40118409V.4501953L.036987306 .44218446V.39518739C.09899902 .39518739 .10598755 .39518739 .10598755 .35717774V-.14733887H.036987306V-.19433594C.06498718-.19334412 .125-.19134522 .16299439-.19134522 .20199585-.19134522 .26098634-.19334412 .2889862-.19433594V-.14733887H.21998596V.039138795Z"/>
<path id="font_3_2" d="M.5419922 .21812439C.5419922 .35212709 .44999696 .453125 .2869873 .453125 .12298584 .453125 .03199768 .35112 .03199768 .21812439 .03199768 .09413147 .11999512-.005859375 .2869873-.005859375 .45498658-.005859375 .5419922 .09512329 .5419922 .21812439M.2869873 .03413391C.1599884 .03413391 .1599884 .14213562 .1599884 .22912598 .1599884 .27412416 .1599884 .32511903 .1769867 .3591156 .19599915 .39611817 .23799134 .41711427 .2869873 .41711427 .32899476 .41711427 .37098695 .40112306 .3929901 .36611939 .4139862 .3321228 .4139862 .27713014 .4139862 .22912598 .4139862 .14213562 .4139862 .03413391 .2869873 .03413391Z"/>
<path id="font_3_4" d="M.20298767 .3371582V.4501953L.036987306 .44218446V.39518739C.09899902 .39518739 .10598755 .39518739 .10598755 .35617066V.04699707H.036987306V0C.07199097 .0009918213 .116989139 .0029907227 .16299439 .0029907227 .20098877 .0029907227 .2649994 .0029907227 .30099488 0V.04699707H.21398926V.22209168C.21398926 .2921753 .23899842 .41418458 .33898927 .41418458 .33799745 .41319276 .31999208 .39718629 .31999208 .36819459 .31999208 .3271942 .35198976 .30718995 .3809967 .30718995 .4099884 .30718995 .44198609 .32818605 .44198609 .36819459 .44198609 .42118836 .3880005 .4501953 .33599855 .4501953 .2659912 .4501953 .22599793 .40019227 .20298767 .3371582Z"/>
<path id="font_3_5" d="M.102996829 .3973236V.123184207C.102996829 .01612854 .18998719-.005859375 .26098634-.005859375 .33699037-.005859375 .38198854 .05114746 .38198854 .124176029V.17721558H.33499146V.12619019C.33499146 .058151246 .30299378 .03413391 .2749939 .03413391 .21699524 .03413391 .21699524 .09817505 .21699524 .1211853V.3973236H.36299134V.44433595H.21699524V.6352234H.16999817C.16899109 .5352783 .11999512 .43632508 .020996094 .43333436V.3973236H.102996829Z"/>
<path id="font_3_16" d="M.73599246 .6745453H.06298828L.041992189 .43370057H.08898926C.09799194 .54660037 .10798645 .62753298 .2519989 .62753298H.32899476V.04699707H.17599488V0C.22999573 .0029907227 .34098817 .0029907227 .3999939 .0029907227 .45899964 .0029907227 .56999209 .0029907227 .6239929 0V.04699707H.47099305V.62753298H.5469971C.6899872 .62753298 .69999697 .5476074 .70999148 .43370057H.7569885L.73599246 .6745453Z"/>
<path id="font_3_17" d="M.21398926 .23716736V.69433596L.036987306 .6863251V.639328C.09899902 .639328 .10598755 .639328 .10598755 .60032656V.04699707H.036987306V0C.07398987 .0009918213 .12098694 .0029907227 .15699768 .0029907227 .19400025 .0029907227 .24198914 .0009918213 .27799989 0V.04699707H.20899964V.17411804C.23799134 .1971283 .24598694 .20314026 .2659912 .21714783L.36698915 .091033939C.37599183 .07902527 .3919983 .059005739 .3919983 .055999757 .3919983 .04699707 .37399293 .04699707 .36099244 .04699707V0C.3909912 .0019989014 .47799684 .0029907227 .48298646 .0029907227 .5189972 .0029907227 .5529938 .0019989014 .58699038 0V.04699707H.56999209C.5269928 .04699707 .5239868 .050994874 .5109863 .0670166L.34199525 .2782135 .47200013 .37930299C.48599244 .39031983 .49499513 .3973236 .56199648 .3973236V.44433595C.5349884 .44132997 .5099945 .44132997 .48399354 .44132997 .45700074 .44132997 .3919983 .44332887 .36898805 .44433595V.3973236C.3919983 .3973236 .394989 .39431764 .40299989 .38632203L.21398926 .23716736Z"/>
<path id="font_0_16" d="M.2939911 .64004519C.2939911 .66400149 .2939911 .6660156 .2709961 .6660156 .20899964 .60227969 .12098694 .60227969 .08898926 .60227969V.57128909C.10899353 .57128909 .16799927 .57128909 .21998596 .5972748V.07902527C.21998596 .042999269 .21699524 .0309906 .1269989 .0309906H.09498596V0C.12998963 .0029907227 .21699524 .0029907227 .25698854 .0029907227 .29699708 .0029907227 .38398744 .0029907227 .4189911 0V.0309906H.3869934C.29699708 .0309906 .2939911 .041992189 .2939911 .07902527V.64004519Z"/>
<path id="font_0_6" d="M.2869873 .23480225C.31698609 .2727661 .35499574 .32173158 .3789978 .34770204 .4099884 .383667 .45098878 .39865113 .49798585 .3996582V.43066407C.47200013 .4286499 .44198609 .42765809 .41600038 .42765809 .38598634 .42765809 .33299256 .42965699 .31999208 .43066407V.3996582C.34098817 .3976593 .34899903 .38467408 .34899903 .36868287 .34899903 .3527069 .33898927 .33970643 .33399964 .33372499L.27198792 .25578309 .19400025 .35668946C.18499756 .36668397 .18499756 .36868287 .18499756 .37467958 .18499756 .3896637 .19999695 .39865113 .21998596 .3996582V.43066407C.19400025 .42965699 .12799073 .42765809 .11199951 .42765809 .09098816 .42765809 .04399109 .4286499 .016998291 .43066407V.3996582C.08699036 .3996582 .08799744 .39865113 .1349945 .3387146L.23399353 .20982361 .13999939 .09094238C.09199524 .032989503 .032989503 .0309906 .011993408 .0309906V0C.037994386 .0019989014 .068984989 .0029907227 .09498596 .0029907227 .12399292 .0029907227 .1659851 .0009918213 .18998719 0V.0309906C.16799927 .033996583 .16099549 .04698181 .16099549 .061965944 .16099549 .0839386 .18998719 .11691284 .25099183 .18884278L.32699586 .08894348C.33499146 .07795715 .34799195 .061965944 .34799195 .05596924 .34799195 .04698181 .33898927 .03199768 .31199647 .0309906V0C.34199525 .0009918213 .397995 .0029907227 .41999818 .0029907227 .44699098 .0029907227 .48599244 .0019989014 .5159912 0V.0309906C.46199037 .0309906 .44400025 .032989503 .42099 .061965944L.2869873 .23480225Z"/>
<path id="font_0_14" d="M.19198609 .052993776C.19198609 .08198547 .16799927 .10598755 .13899231 .10598755 .10998535 .10598755 .085998538 .08198547 .085998538 .052993776 .085998538 .023986817 .10998535 0 .13899231 0 .16799927 0 .19198609 .023986817 .19198609 .052993776Z"/>
<path id="font_0_17" d="M.1269989 .07699585 .23298645 .18003845C.3889923 .31811524 .44898988 .3721466 .44898988 .47216798 .44898988 .5860901 .35899354 .6660156 .23699951 .6660156 .12399292 .6660156 .049987794 .57411196 .049987794 .48516847 .049987794 .4291687 .099990848 .4291687 .102996829 .4291687 .11999512 .4291687 .15499878 .44117738 .15499878 .48217774 .15499878 .5081787 .13699341 .5341797 .101989749 .5341797 .09399414 .5341797 .09199524 .5341797 .08898926 .5331726 .11199951 .59806826 .1659851 .63500979 .22399903 .63500979 .31498719 .63500979 .35798646 .5541382 .35798646 .47216798 .35798646 .39215089 .30799867 .31311036 .25299073 .25108338L.06098938 .036987306C.049987794 .025985718 .049987794 .023986817 .049987794 0H.42099L.44898988 .17404175H.42399598C.4189911 .14402771 .4119873 .1000061 .4019928 .084991458 .394989 .07699585 .32899476 .07699585 .30699159 .07699585H.1269989Z"/>
<path id="font_0_18" d="M.44898988 .20022583C.44898988 .3193512 .36698915 .41944886 .25898744 .41944886 .21099854 .41944886 .16799927 .40345765 .13198853 .36842347V.5637665C.1519928 .5577698 .18499756 .55078127 .21699524 .55078127 .33999635 .55078127 .4099884 .6417694 .4099884 .6547699 .4099884 .6607666 .40699769 .6657715 .3999939 .6657715 .39898683 .6657715 .39698792 .6657715 .3919983 .66278079 .37199403 .6537781 .32299806 .6337738 .2559967 .6337738 .21598816 .6337738 .16999817 .6407776 .12298584 .6617737 .114990238 .66477969 .11299133 .66477969 .11099243 .66477969 .100997928 .66477969 .100997928 .6567688 .100997928 .6407776V.34439088C.100997928 .32637025 .100997928 .31835938 .114990238 .31835938 .12199402 .31835938 .12399292 .32136537 .12799073 .32736207 .13899231 .3433838 .17599488 .39746095 .25698854 .39746095 .30899049 .39746095 .33399964 .35139466 .34199525 .33337403 .35798646 .29632569 .3600006 .25727845 .3600006 .20722962 .3600006 .17222595 .3600006 .11222839 .33599855 .07035828 .31199647 .031463624 .2749939 .0055389406 .22898865 .0055389406 .1559906 .0055389406 .09899902 .058380128 .08198547 .11723328 .084991458 .1162262 .08799744 .115234378 .09899902 .115234378 .13198853 .115234378 .14898682 .14022827 .14898682 .16423035 .14898682 .18823242 .13198853 .21322632 .09899902 .21322632 .084991458 .21322632 .049987794 .20622254 .049987794 .16023255 .049987794 .07434082 .11898804-.022460938 .23098755-.022460938 .34700013-.022460938 .44898988 .073349 .44898988 .20022583Z"/>
<path id="font_0_15" d="M.45999146 .31976319C.45999146 .39982606 .45498658 .47988893 .41999818 .5539398 .37399293 .65000918 .2919922 .6660156 .25 .6660156 .18998719 .6660156 .116989139 .64001467 .07598877 .54693606 .04399109 .47789 .038986207 .39982606 .038986207 .31976319 .038986207 .24472046 .042999269 .15464783 .083999637 .07859802 .1269989-.0024719239 .19999695-.022460938 .24899292-.022460938 .30299378-.022460938 .3789978-.0014648438 .4229889 .09359741 .45498658 .16265869 .45999146 .2407074 .45999146 .31976319M.24899292-.00047302247C.20999146-.00047302247 .15098572 .024551392 .1329956 .12062073 .12199402 .18066406 .12199402 .2727356 .12199402 .3317871 .12199402 .39582826 .12199402 .46188355 .12998963 .5159149 .14898682 .63500979 .22399903 .64401248 .24899292 .64401248 .28199769 .64401248 .34799195 .6259918 .36698915 .52693179 .3769989 .47088624 .3769989 .39482118 .3769989 .3317871 .3769989 .25672914 .3769989 .18867493 .3659973 .12461853 .35099793 .029556275 .2939911-.00047302247 .24899292-.00047302247Z"/>
<path id="font_0_19" d="M.47599793 .609375C.4850006 .6213684 .4850006 .62338259 .4850006 .64437869H.24198914C.11999512 .64437869 .117996219 .65737918 .11399841 .67637637H.08898926L.055999757 .4702301H.08099365C.083999637 .48625184 .09298706 .5493469 .10598755 .56137087 .11299133 .5673828 .19099427 .5673828 .20399475 .5673828H.41099549C.3999939 .5513611 .32099916 .4421997 .29899598 .40914918 .20899964 .27394105 .17599488 .1347351 .17599488 .032577516 .17599488 .022567749 .17599488-.022460938 .22200012-.022460938 .2679901-.022460938 .2679901 .022567749 .2679901 .032577516V.08366394C.2679901 .13873291 .2709961 .19381714 .2789917 .24790955 .2829895 .27093507 .29699708 .35707093 .34098817 .41915895L.47599793 .609375Z"/>
</defs>
<path transform="matrix(.1,0,0,-.1,0,83.83)" stroke-width="7.97" stroke-linecap="butt" stroke-miterlimit="10" stroke-linejoin="miter" fill="none" stroke="#000000" d="M5 829.32H3404.5"/>
<use data-text="A" xlink:href="#font_0_1" transform="matrix(9.9626,0,0,-9.9626,.5,12.453003)"/>
<use data-text="t" xlink:href="#font_0_4" transform="matrix(9.9626,0,0,-9.9626,7.69297,12.453003)"/>
<use data-text="t" xlink:href="#font_0_4" transform="matrix(9.9626,0,0,-9.9626,11.567425,12.453003)"/>
<use data-text="a" xlink:href="#font_0_5" transform="matrix(9.9626,0,0,-9.9626,15.44188,12.453003)"/>
<use data-text="c" xlink:href="#font_0_7" transform="matrix(9.9626,0,0,-9.9626,20.42318,12.453003)"/>
<use data-text="k" xlink:href="#font_0_13" transform="matrix(9.9626,0,0,-9.9626,24.571484,12.453003)"/>
<use data-text="i" xlink:href="#font_0_12" transform="matrix(9.9626,0,0,-9.9626,29.829745,12.453003)"/>
<use data-text="n" xlink:href="#font_0_2" transform="matrix(9.9626,0,0,-9.9626,32.597356,12.453003)"/>
<use data-text="g" xlink:href="#font_0_11" transform="matrix(9.9626,0,0,-9.9626,38.132577,12.453003)"/>
<use data-text="&#x2193;" xlink:href="#font_1_2" transform="matrix(9.9626,0,0,-9.9626,46.4391,12.453003)"/>
<use data-text="\" xlink:href="#font_2_1" transform="matrix(9.9626,0,0,-9.9626,54.73988,12.453003)"/>
<use data-text="D" xlink:href="#font_0_3" transform="matrix(9.9626,0,0,-9.9626,59.72113,12.453003)"/>
<use data-text="e" xlink:href="#font_0_9" transform="matrix(9.9626,0,0,-9.9626,67.33156,12.453003)"/>
<use data-text="f" xlink:href="#font_0_10" transform="matrix(9.9626,0,0,-9.9626,71.758937,12.453003)"/>
<use data-text="e" xlink:href="#font_0_9" transform="matrix(9.9626,0,0,-9.9626,74.8035,12.453003)"/>
<use data-text="n" xlink:href="#font_0_2" transform="matrix(9.9626,0,0,-9.9626,79.23087,12.453003)"/>
<use data-text="d" xlink:href="#font_0_8" transform="matrix(9.9626,0,0,-9.9626,84.76609,12.453003)"/>
<use data-text="i" xlink:href="#font_0_12" transform="matrix(9.9626,0,0,-9.9626,90.301319,12.453003)"/>
<use data-text="n" xlink:href="#font_0_2" transform="matrix(9.9626,0,0,-9.9626,93.06893,12.453003)"/>
<use data-text="g" xlink:href="#font_0_11" transform="matrix(9.9626,0,0,-9.9626,98.60416,12.453003)"/>
<use data-text="&#x2192;" xlink:href="#font_1_1" transform="matrix(9.9626,0,0,-9.9626,106.90593,12.453003)"/>
<use data-text="M" xlink:href="#font_3_9" transform="matrix(9.9626,0,0,-9.9626,128.82114,12.453003)"/>
<use data-text="e" xlink:href="#font_3_11" transform="matrix(9.9626,0,0,-9.9626,139.69731,12.453003)"/>
<use data-text="l" xlink:href="#font_3_18" transform="matrix(9.9626,0,0,-9.9626,144.9486,12.453003)"/>
<use data-text="e" xlink:href="#font_3_11" transform="matrix(9.9626,0,0,-9.9626,148.13066,12.453003)"/>
<use data-text="e" xlink:href="#font_3_11" transform="matrix(9.9626,0,0,-9.9626,153.38195,12.453003)"/>
<use data-text="R" xlink:href="#font_3_13" transform="matrix(9.9626,0,0,-9.9626,170.58835,12.453003)"/>
<use data-text="a" xlink:href="#font_3_7" transform="matrix(9.9626,0,0,-9.9626,179.18109,12.453003)"/>
<use data-text="n" xlink:href="#font_3_1" transform="matrix(9.9626,0,0,-9.9626,184.75019,12.453003)"/>
<use data-text="g" xlink:href="#font_3_12" transform="matrix(9.9626,0,0,-9.9626,191.1153,12.453003)"/>
<use data-text="e" xlink:href="#font_3_11" transform="matrix(9.9626,0,0,-9.9626,196.8438,12.453003)"/>
<use data-text="d" xlink:href="#font_3_10" transform="matrix(9.9626,0,0,-9.9626,202.0951,12.453003)"/>
<use data-text="M" xlink:href="#font_3_9" transform="matrix(9.9626,0,0,-9.9626,220.41532,12.453003)"/>
<use data-text="a" xlink:href="#font_3_7" transform="matrix(9.9626,0,0,-9.9626,231.2915,12.453003)"/>
<use data-text="g" xlink:href="#font_3_12" transform="matrix(9.9626,0,0,-9.9626,236.8606,12.453003)"/>
<use data-text="i" xlink:href="#font_3_14" transform="matrix(9.9626,0,0,-9.9626,242.5891,12.453003)"/>
<use data-text="c" xlink:href="#font_3_8" transform="matrix(9.9626,0,0,-9.9626,245.77115,12.453003)"/>
<use data-text="S" xlink:href="#font_3_15" transform="matrix(9.9626,0,0,-9.9626,262.81806,12.453003)"/>
<use data-text="u" xlink:href="#font_3_6" transform="matrix(9.9626,0,0,-9.9626,269.18318,12.453003)"/>
<use data-text="p" xlink:href="#font_3_3" transform="matrix(9.9626,0,0,-9.9626,275.54829,12.453003)"/>
<use data-text="p" xlink:href="#font_3_3" transform="matrix(9.9626,0,0,-9.9626,281.9134,12.453003)"/>
<use data-text="o" xlink:href="#font_3_2" transform="matrix(9.9626,0,0,-9.9626,288.59739,12.453003)"/>
<use data-text="r" xlink:href="#font_3_4" transform="matrix(9.9626,0,0,-9.9626,294.32588,12.453003)"/>
<use data-text="t" xlink:href="#font_3_5" transform="matrix(9.9626,0,0,-9.9626,299.04417,12.453003)"/>
<use data-text="T" xlink:href="#font_3_16" transform="matrix(9.9626,0,0,-9.9626,315.45445,12.453003)"/>
<use data-text="a" xlink:href="#font_3_7" transform="matrix(9.9626,0,0,-9.9626,322.46815,12.453003)"/>
<use data-text="n" xlink:href="#font_3_1" transform="matrix(9.9626,0,0,-9.9626,328.03724,12.453003)"/>
<use data-text="k" xlink:href="#font_3_17" transform="matrix(9.9626,0,0,-9.9626,334.40235,12.453003)"/>
<path transform="matrix(.1,0,0,-.1,0,83.83)" stroke-width="4.98" stroke-linecap="butt" stroke-miterlimit="10" stroke-linejoin="miter" fill="none" stroke="#000000" d="M5 658.262H3404.5"/>
<use data-text="M" xlink:href="#font_3_9" transform="matrix(9.9626,0,0,-9.9626,.5,29.410103)"/>
<use data-text="e" xlink:href="#font_3_11" transform="matrix(9.9626,0,0,-9.9626,11.37617,29.410103)"/>
<use data-text="l" xlink:href="#font_3_18" transform="matrix(9.9626,0,0,-9.9626,16.627457,29.410103)"/>
<use data-text="e" xlink:href="#font_3_11" transform="matrix(9.9626,0,0,-9.9626,19.809514,29.410103)"/>
<use data-text="e" xlink:href="#font_3_11" transform="matrix(9.9626,0,0,-9.9626,25.060799,29.410103)"/>
<use data-text="1" xlink:href="#font_0_16" transform="matrix(9.9626,0,0,-9.9626,128.821,29.410103)"/>
<use data-text="x" xlink:href="#font_0_6" transform="matrix(9.9626,0,0,-9.9626,133.80229,29.410103)"/>
<use data-text="1" xlink:href="#font_0_16" transform="matrix(9.9626,0,0,-9.9626,170.59209,29.410103)"/>
<use data-text="." xlink:href="#font_0_14" transform="matrix(9.9626,0,0,-9.9626,175.57338,29.410103)"/>
<use data-text="2" xlink:href="#font_0_17" transform="matrix(9.9626,0,0,-9.9626,178.34099,29.410103)"/>
<use data-text="5" xlink:href="#font_0_18" transform="matrix(9.9626,0,0,-9.9626,183.32228,29.410103)"/>
<use data-text="x" xlink:href="#font_0_6" transform="matrix(9.9626,0,0,-9.9626,188.30358,29.410103)"/>
<use data-text="0" xlink:href="#font_0_15" transform="matrix(9.9626,0,0,-9.9626,220.41124,29.410103)"/>
<use data-text="." xlink:href="#font_0_14" transform="matrix(9.9626,0,0,-9.9626,225.39253,29.410103)"/>
<use data-text="7" xlink:href="#font_0_19" transform="matrix(9.9626,0,0,-9.9626,228.16014,29.410103)"/>
<use data-text="5" xlink:href="#font_0_18" transform="matrix(9.9626,0,0,-9.9626,233.14144,29.410103)"/>
<use data-text="x" xlink:href="#font_0_6" transform="matrix(9.9626,0,0,-9.9626,238.12273,29.410103)"/>
<use data-text="1" xlink:href="#font_0_16" transform="matrix(9.9626,0,0,-9.9626,262.8178,29.410103)"/>
<use data-text="x" xlink:href="#font_0_6" transform="matrix(9.9626,0,0,-9.9626,267.7991,29.410103)"/>
<use data-text="0" xlink:href="#font_0_15" transform="matrix(9.9626,0,0,-9.9626,315.458,29.410103)"/>
<use data-text="." xlink:href="#font_0_14" transform="matrix(9.9626,0,0,-9.9626,320.4393,29.410103)"/>
<use data-text="7" xlink:href="#font_0_19" transform="matrix(9.9626,0,0,-9.9626,323.2069,29.410103)"/>
<use data-text="5" xlink:href="#font_0_18" transform="matrix(9.9626,0,0,-9.9626,328.1882,29.410103)"/>
<use data-text="x" xlink:href="#font_0_6" transform="matrix(9.9626,0,0,-9.9626,333.1695,29.410103)"/>
<use data-text="R" xlink:href="#font_3_13" transform="matrix(9.9626,0,0,-9.9626,.5,41.365205)"/>
<use data-text="a" xlink:href="#font_3_7" transform="matrix(9.9626,0,0,-9.9626,9.092743,41.365205)"/>
<use data-text="n" xlink:href="#font_3_1" transform="matrix(9.9626,0,0,-9.9626,14.661837,41.365205)"/>
<use data-text="g" xlink:href="#font_3_12" transform="matrix(9.9626,0,0,-9.9626,21.026944,41.365205)"/>
<use data-text="e" xlink:href="#font_3_11" transform="matrix(9.9626,0,0,-9.9626,26.755438,41.365205)"/>
<use data-text="d" xlink:href="#font_3_10" transform="matrix(9.9626,0,0,-9.9626,32.00673,41.365205)"/>
<use data-text="0" xlink:href="#font_0_15" transform="matrix(9.9626,0,0,-9.9626,128.821,41.365205)"/>
<use data-text="." xlink:href="#font_0_14" transform="matrix(9.9626,0,0,-9.9626,133.80229,41.365205)"/>
<use data-text="7" xlink:href="#font_0_19" transform="matrix(9.9626,0,0,-9.9626,136.5699,41.365205)"/>
<use data-text="5" xlink:href="#font_0_18" transform="matrix(9.9626,0,0,-9.9626,141.5512,41.365205)"/>
<use data-text="x" xlink:href="#font_0_6" transform="matrix(9.9626,0,0,-9.9626,146.53249,41.365205)"/>
<use data-text="1" xlink:href="#font_0_16" transform="matrix(9.9626,0,0,-9.9626,170.59008,41.365205)"/>
<use data-text="x" xlink:href="#font_0_6" transform="matrix(9.9626,0,0,-9.9626,175.57137,41.365205)"/>
<use data-text="1" xlink:href="#font_0_16" transform="matrix(9.9626,0,0,-9.9626,220.41114,41.365205)"/>
<use data-text="." xlink:href="#font_0_14" transform="matrix(9.9626,0,0,-9.9626,225.39243,41.365205)"/>
<use data-text="2" xlink:href="#font_0_17" transform="matrix(9.9626,0,0,-9.9626,228.16004,41.365205)"/>
<use data-text="5" xlink:href="#font_0_18" transform="matrix(9.9626,0,0,-9.9626,233.14133,41.365205)"/>
<use data-text="x" xlink:href="#font_0_6" transform="matrix(9.9626,0,0,-9.9626,238.12262,41.365205)"/>
<use data-text="1" xlink:href="#font_0_16" transform="matrix(9.9626,0,0,-9.9626,262.81773,41.365205)"/>
<use data-text="x" xlink:href="#font_0_6" transform="matrix(9.9626,0,0,-9.9626,267.799,41.365205)"/>
<use data-text="1" xlink:href="#font_0_16" transform="matrix(9.9626,0,0,-9.9626,315.45793,41.365205)"/>
<use data-text="." xlink:href="#font_0_14" transform="matrix(9.9626,0,0,-9.9626,320.4392,41.365205)"/>
<use data-text="2" xlink:href="#font_0_17" transform="matrix(9.9626,0,0,-9.9626,323.20683,41.365205)"/>
<use data-text="5" xlink:href="#font_0_18" transform="matrix(9.9626,0,0,-9.9626,328.1881,41.365205)"/>
<use data-text="x" xlink:href="#font_0_6" transform="matrix(9.9626,0,0,-9.9626,333.1694,41.365205)"/>
<use data-text="M" xlink:href="#font_3_9" transform="matrix(9.9626,0,0,-9.9626,.5,53.319906)"/>
<use data-text="a" xlink:href="#font_3_7" transform="matrix(9.9626,0,0,-9.9626,11.37617,53.319906)"/>
<use data-text="g" xlink:href="#font_3_12" transform="matrix(9.9626,0,0,-9.9626,16.945263,53.319906)"/>
<use data-text="i" xlink:href="#font_3_14" transform="matrix(9.9626,0,0,-9.9626,22.673758,53.319906)"/>
<use data-text="c" xlink:href="#font_3_8" transform="matrix(9.9626,0,0,-9.9626,25.855816,53.319906)"/>
<use data-text="1" xlink:href="#font_0_16" transform="matrix(9.9626,0,0,-9.9626,128.821,53.319906)"/>
<use data-text="." xlink:href="#font_0_14" transform="matrix(9.9626,0,0,-9.9626,133.80229,53.319906)"/>
<use data-text="2" xlink:href="#font_0_17" transform="matrix(9.9626,0,0,-9.9626,136.5699,53.319906)"/>
<use data-text="5" xlink:href="#font_0_18" transform="matrix(9.9626,0,0,-9.9626,141.5512,53.319906)"/>
<use data-text="x" xlink:href="#font_0_6" transform="matrix(9.9626,0,0,-9.9626,146.53249,53.319906)"/>
<use data-text="0" xlink:href="#font_0_15" transform="matrix(9.9626,0,0,-9.9626,170.59008,53.319906)"/>
<use data-text="." xlink:href="#font_0_14" transform="matrix(9.9626,0,0,-9.9626,175.57137,53.319906)"/>
<use data-text="7" xlink:href="#font_0_19" transform="matrix(9.9626,0,0,-9.9626,178.33898,53.319906)"/>
<use data-text="5" xlink:href="#font_0_18" transform="matrix(9.9626,0,0,-9.9626,183.32027,53.319906)"/>
<use data-text="x" xlink:href="#font_0_6" transform="matrix(9.9626,0,0,-9.9626,188.30156,53.319906)"/>
<use data-text="1" xlink:href="#font_0_16" transform="matrix(9.9626,0,0,-9.9626,220.41899,53.319906)"/>
<use data-text="x" xlink:href="#font_0_6" transform="matrix(9.9626,0,0,-9.9626,225.40029,53.319906)"/>
<use data-text="1" xlink:href="#font_0_16" transform="matrix(9.9626,0,0,-9.9626,262.8178,53.319906)"/>
<use data-text="." xlink:href="#font_0_14" transform="matrix(9.9626,0,0,-9.9626,267.7991,53.319906)"/>
<use data-text="2" xlink:href="#font_0_17" transform="matrix(9.9626,0,0,-9.9626,270.5667,53.319906)"/>
<use data-text="5" xlink:href="#font_0_18" transform="matrix(9.9626,0,0,-9.9626,275.548,53.319906)"/>
<use data-text="x" xlink:href="#font_0_6" transform="matrix(9.9626,0,0,-9.9626,280.5293,53.319906)"/>
<use data-text="1" xlink:href="#font_0_16" transform="matrix(9.9626,0,0,-9.9626,315.4561,53.319906)"/>
<use data-text="x" xlink:href="#font_0_6" transform="matrix(9.9626,0,0,-9.9626,320.43739,53.319906)"/>
<use data-text="S" xlink:href="#font_3_15" transform="matrix(9.9626,0,0,-9.9626,.5,65.27501)"/>
<use data-text="u" xlink:href="#font_3_6" transform="matrix(9.9626,0,0,-9.9626,6.8651058,65.27501)"/>
<use data-text="p" xlink:href="#font_3_3" transform="matrix(9.9626,0,0,-9.9626,13.230211,65.27501)"/>
<use data-text="p" xlink:href="#font_3_3" transform="matrix(9.9626,0,0,-9.9626,19.595316,65.27501)"/>
<use data-text="o" xlink:href="#font_3_2" transform="matrix(9.9626,0,0,-9.9626,26.279295,65.27501)"/>
<use data-text="r" xlink:href="#font_3_4" transform="matrix(9.9626,0,0,-9.9626,32.00779,65.27501)"/>
<use data-text="t" xlink:href="#font_3_5" transform="matrix(9.9626,0,0,-9.9626,36.726079,65.27501)"/>
<use data-text="1" xlink:href="#font_0_16" transform="matrix(9.9626,0,0,-9.9626,128.821,65.27501)"/>
<use data-text="x" xlink:href="#font_0_6" transform="matrix(9.9626,0,0,-9.9626,133.80229,65.27501)"/>
<use data-text="1" xlink:href="#font_0_16" transform="matrix(9.9626,0,0,-9.9626,170.59209,65.27501)"/>
<use data-text="x" xlink:href="#font_0_6" transform="matrix(9.9626,0,0,-9.9626,175.57338,65.27501)"/>
<use data-text="0" xlink:href="#font_0_15" transform="matrix(9.9626,0,0,-9.9626,220.41315,65.27501)"/>
<use data-text="." xlink:href="#font_0_14" transform="matrix(9.9626,0,0,-9.9626,225.39444,65.27501)"/>
<use data-text="7" xlink:href="#font_0_19" transform="matrix(9.9626,0,0,-9.9626,228.16205,65.27501)"/>
<use data-text="5" xlink:href="#font_0_18" transform="matrix(9.9626,0,0,-9.9626,233.14334,65.27501)"/>
<use data-text="x" xlink:href="#font_0_6" transform="matrix(9.9626,0,0,-9.9626,238.12464,65.27501)"/>
<use data-text="1" xlink:href="#font_0_16" transform="matrix(9.9626,0,0,-9.9626,262.81974,65.27501)"/>
<use data-text="x" xlink:href="#font_0_6" transform="matrix(9.9626,0,0,-9.9626,267.80104,65.27501)"/>
<use data-text="1" xlink:href="#font_0_16" transform="matrix(9.9626,0,0,-9.9626,315.45018,65.27501)"/>
<use data-text="." xlink:href="#font_0_14" transform="matrix(9.9626,0,0,-9.9626,320.43147,65.27501)"/>
<use data-text="2" xlink:href="#font_0_17" transform="matrix(9.9626,0,0,-9.9626,323.19908,65.27501)"/>
<use data-text="5" xlink:href="#font_0_18" transform="matrix(9.9626,0,0,-9.9626,328.18037,65.27501)"/>
<use data-text="x" xlink:href="#font_0_6" transform="matrix(9.9626,0,0,-9.9626,333.16166,65.27501)"/>
<use data-text="T" xlink:href="#font_3_16" transform="matrix(9.9626,0,0,-9.9626,.5,77.23131)"/>
<use data-text="a" xlink:href="#font_3_7" transform="matrix(9.9626,0,0,-9.9626,7.51367,77.23131)"/>
<use data-text="n" xlink:href="#font_3_1" transform="matrix(9.9626,0,0,-9.9626,13.082764,77.23131)"/>
<use data-text="k" xlink:href="#font_3_17" transform="matrix(9.9626,0,0,-9.9626,19.447869,77.23131)"/>
<use data-text="1" xlink:href="#font_0_16" transform="matrix(9.9626,0,0,-9.9626,128.821,77.23131)"/>
<use data-text="." xlink:href="#font_0_14" transform="matrix(9.9626,0,0,-9.9626,133.80229,77.23131)"/>
<use data-text="2" xlink:href="#font_0_17" transform="matrix(9.9626,0,0,-9.9626,136.5699,77.23131)"/>
<use data-text="5" xlink:href="#font_0_18" transform="matrix(9.9626,0,0,-9.9626,141.5512,77.23131)"/>
<use data-text="x" xlink:href="#font_0_6" transform="matrix(9.9626,0,0,-9.9626,146.53249,77.23131)"/>
<use data-text="0" xlink:href="#font_0_15" transform="matrix(9.9626,0,0,-9.9626,170.59008,77.23131)"/>
<use data-text="." xlink:href="#font_0_14" transform="matrix(9.9626,0,0,-9.9626,175.57137,77.23131)"/>
<use data-text="7" xlink:href="#font_0_19" transform="matrix(9.9626,0,0,-9.9626,178.33898,77.23131)"/>
<use data-text="5" xlink:href="#font_0_18" transform="matrix(9.9626,0,0,-9.9626,183.32027,77.23131)"/>
<use data-text="x" xlink:href="#font_0_6" transform="matrix(9.9626,0,0,-9.9626,188.30156,77.23131)"/>
<use data-text="1" xlink:href="#font_0_16" transform="matrix(9.9626,0,0,-9.9626,220.41899,77.23131)"/>
<use data-text="x" xlink:href="#font_0_6" transform="matrix(9.9626,0,0,-9.9626,225.40029,77.23131)"/>
<use data-text="1" xlink:href="#font_0_16" transform="matrix(9.9626,0,0,-9.9626,262.8178,77.23131)"/>
<use data-text="x" xlink:href="#font_0_6" transform="matrix(9.9626,0,0,-9.9626,267.7991,77.23131)"/>
<use data-text="1" xlink:href="#font_0_16" transform="matrix(9.9626,0,0,-9.9626,315.458,77.23131)"/>
<use data-text="x" xlink:href="#font_0_6" transform="matrix(9.9626,0,0,-9.9626,320.4393,77.23131)"/>
<path transform="matrix(.1,0,0,-.1,0,83.83)" stroke-width="7.97" stroke-linecap="butt" stroke-miterlimit="10" stroke-linejoin="miter" fill="none" stroke="#000000" d="M5 8.98828H3404.5"/>
</svg>
